<mxfile host="app.diagrams.net" modified="2021-04-15T06:11:16.494Z" agent="5.0 (Windows NT 10.0; Win64; x64) AppleWebKit/537.36 (KHTML, like Gecko) Chrome/89.0.4389.114 Safari/537.36" etag="5h4eMaSSaSwPTx6fP9Jn" version="14.5.10" type="github">
  <diagram id="8TFS_j_TLSls43iOxlS7" name="Page-1">
    <mxGraphModel dx="1422" dy="794" grid="1" gridSize="10" guides="1" tooltips="1" connect="1" arrows="1" fold="1" page="1" pageScale="1" pageWidth="850" pageHeight="1100" math="0" shadow="0">
      <root>
        <mxCell id="0" />
        <mxCell id="1" parent="0" />
        <mxCell id="tPY31iWrT3PdNw-c0IPU-1" value="Quy trình phát triển sản phẩm" style="swimlane;html=1;childLayout=stackLayout;resizeParent=1;resizeParentMax=0;startSize=20;" vertex="1" parent="1">
          <mxGeometry x="60" y="50" width="1390" height="480" as="geometry" />
        </mxCell>
        <mxCell id="tPY31iWrT3PdNw-c0IPU-2" value="Sale Admin" style="swimlane;html=1;startSize=20;" vertex="1" parent="tPY31iWrT3PdNw-c0IPU-1">
          <mxGeometry y="20" width="210" height="460" as="geometry" />
        </mxCell>
        <mxCell id="tPY31iWrT3PdNw-c0IPU-10" value="Tiếp cận khách hàng" style="ellipse;whiteSpace=wrap;html=1;" vertex="1" parent="tPY31iWrT3PdNw-c0IPU-2">
          <mxGeometry x="45" y="40" width="120" height="60" as="geometry" />
        </mxCell>
        <mxCell id="tPY31iWrT3PdNw-c0IPU-3" value="Sale" style="swimlane;html=1;startSize=20;" vertex="1" parent="tPY31iWrT3PdNw-c0IPU-1">
          <mxGeometry x="210" y="20" width="220" height="460" as="geometry" />
        </mxCell>
        <mxCell id="tPY31iWrT3PdNw-c0IPU-14" value="Đàm phán, kí hợp đồng" style="ellipse;whiteSpace=wrap;html=1;" vertex="1" parent="tPY31iWrT3PdNw-c0IPU-3">
          <mxGeometry x="50" y="230" width="120" height="60" as="geometry" />
        </mxCell>
        <mxCell id="tPY31iWrT3PdNw-c0IPU-5" value="BA" style="swimlane;html=1;startSize=20;" vertex="1" parent="tPY31iWrT3PdNw-c0IPU-1">
          <mxGeometry x="430" y="20" width="210" height="460" as="geometry" />
        </mxCell>
        <mxCell id="tPY31iWrT3PdNw-c0IPU-12" value="Lấy yêu cầu từ khách hàng" style="ellipse;whiteSpace=wrap;html=1;" vertex="1" parent="tPY31iWrT3PdNw-c0IPU-5">
          <mxGeometry x="-110" y="140" width="220" height="60" as="geometry" />
        </mxCell>
        <mxCell id="tPY31iWrT3PdNw-c0IPU-4" value="PM" style="swimlane;html=1;startSize=20;" vertex="1" parent="tPY31iWrT3PdNw-c0IPU-1">
          <mxGeometry x="640" y="20" width="230" height="460" as="geometry" />
        </mxCell>
        <mxCell id="tPY31iWrT3PdNw-c0IPU-7" value="Dev" style="swimlane;html=1;startSize=20;" vertex="1" parent="tPY31iWrT3PdNw-c0IPU-1">
          <mxGeometry x="870" y="20" width="240" height="460" as="geometry" />
        </mxCell>
        <mxCell id="tPY31iWrT3PdNw-c0IPU-8" value="Tester/QA" style="swimlane;html=1;startSize=20;" vertex="1" parent="tPY31iWrT3PdNw-c0IPU-1">
          <mxGeometry x="1110" y="20" width="280" height="460" as="geometry" />
        </mxCell>
        <mxCell id="tPY31iWrT3PdNw-c0IPU-11" value="Lấy apo" style="ellipse;whiteSpace=wrap;html=1;" vertex="1" parent="1">
          <mxGeometry x="100" y="210" width="120" height="60" as="geometry" />
        </mxCell>
      </root>
    </mxGraphModel>
  </diagram>
</mxfile>
